<svg viewBox="0 0 10.18 18.02" xmlns="http://www.w3.org/2000/svg" xmlns:xlink="http://www.w3.org/1999/xlink" overflow="hidden"><g id="Layer_2"><g id="Layer_1-2"><path d="M0 0.38 0 0.27C0.0464374 0.054022 0.259167-0.0834179 0.475145-0.0369805 0.563407-0.0180033 0.642654 0.0302735 0.7 0.1L10.06 8.23C10.1682 8.31527 10.2121 8.4588 10.17 8.59L10.17 8.7C10.1247 8.91622 9.91268 9.05476 9.69646 9.00945 9.68417 9.00688 9.672 9.00372 9.66 9L9.61 9C9.54166 8.99085 9.47832 8.95918 9.43 8.91L0.12 0.74C0.0168242 0.65121-0.0292664 0.512938-2.68221e-09 0.38ZM9.57 8.25 9.57 8.25C9.7688 8.17287 9.99315 8.26525 10.08 8.46L10.08 8.57C10.1308 8.69815 10.0992 8.84429 10 8.94L1.34 17.94C1.18434 18.1044 0.924836 18.1116 0.760391 17.9559 0.72253 17.9201 0.691852 17.8773 0.67 17.83L0.67 17.73C0.619194 17.6019 0.650792 17.4557 0.75 17.36L9.41 8.36C9.45151 8.30856 9.50711 8.27033 9.57 8.25Z"/></g></g></svg>