<svg width="880" height="35" xmlns="http://www.w3.org/2000/svg" xmlns:xlink="http://www.w3.org/1999/xlink" overflow="hidden"><defs><clipPath id="clip0"><rect x="235" y="214" width="880" height="35"/></clipPath><clipPath id="clip1"><rect x="235" y="214" width="879" height="34"/></clipPath><clipPath id="clip2"><rect x="235" y="214" width="879" height="34"/></clipPath></defs><g clip-path="url(#clip0)" transform="translate(-235 -214)"><g clip-path="url(#clip1)"><g clip-path="url(#clip2)"><path d="M930.507 30.9901C931.862 31.1509 931.426 30.1631 931.633 30.0023 929.335 30.0712 930.553 31.2428 930.507 30.9901Z" fill="#F4E7DB" transform="matrix(1.01544 0 0 1 235 214.245)"/><path d="M907.787 31.6563 908.223 31.3117 904.823 31.9549 907.787 31.6563Z" fill="#F4E7DB" transform="matrix(1.01544 0 0 1 235 214.245)"/><path d="M886.744 29.4969C888.559 31.4036 894.417 30.1861 898.116 31.059L898.69 31.4955 900.528 30.3239C898.23 30.3239 895.589 30.3239 893.107 30.3239 890.964 30.2598 888.832 29.9827 886.744 29.4969Z" fill="#F4E7DB" transform="matrix(1.01544 0 0 1 235 214.245)"/><path d="M875.947 24.6037C876.567 25.3159 873.466 24.8564 878.543 25.1321L878.083 24.9023C877.555 24.8564 877.004 24.7875 875.947 24.6037Z" fill="#F4E7DB" transform="matrix(1.01544 0 0 1 235 214.245)"/><path d="M878.083 24.9023C880.381 25.1321 876.705 24.1902 878.083 24.9023Z" fill="#F4E7DB" transform="matrix(1.01544 0 0 1 235 214.245)"/><path d="M867.861 23.8456 870.847 23.7078C870.296 23.2483 867.723 22.7889 868.711 22.651 865.701 22.5362 866.252 22.9726 867.861 23.8456Z" fill="#F4E7DB" transform="matrix(1.01544 0 0 1 235 214.245)"/><path d="M864.92 24.6267 866.482 24.6267C866.229 24.4199 865.839 24.3051 864.92 24.6267Z" fill="#F4E7DB" transform="matrix(1.01544 0 0 1 235 214.245)"/><path d="M869.744 24.5807 866.482 24.5807C866.85 24.9023 866.827 25.4537 867.952 24.5807 867.631 25.0861 868.366 24.7186 869.744 24.5807Z" fill="#F4E7DB" transform="matrix(1.01544 0 0 1 235 214.245)"/><path d="M871.513 25.0861C873.098 25.6834 875.166 26.2118 872.179 26.3496 877.762 26.901 877.096 25.6834 871.513 25.0861Z" fill="#F4E7DB" transform="matrix(1.01544 0 0 1 235 214.245)"/><path d="M885.435 31.059 887.571 31.7941 889.524 31.4725C888.559 31.6333 885.366 30.5306 885.435 31.059Z" fill="#F4E7DB" transform="matrix(1.01544 0 0 1 235 214.245)"/><path d="M849.988 20.2159C849.758 20.5375 850.815 21.2956 850.953 21.7781L853.25 21.7781C852.032 21.3186 849.988 20.6754 849.988 20.2159Z" fill="#F4E7DB" transform="matrix(1.01544 0 0 1 235 214.245)"/><path d="M850.884 21.7781 847.576 21.7781C850.447 22.3754 850.999 22.1916 850.884 21.7781Z" fill="#F4E7DB" transform="matrix(1.01544 0 0 1 235 214.245)"/><path d="M864.139 26.3496 869.606 25.8902 863.128 26.2118 864.139 26.3496Z" fill="#F4E7DB" transform="matrix(1.01544 0 0 1 235 214.245)"/><path d="M837.697 18.1254 839.65 17.643 836.204 18.2862 837.697 18.1254Z" fill="#F4E7DB" transform="matrix(1.01544 0 0 1 235 214.245)"/><path d="M829.542 16.8389C831.012 16.4025 827.888 15.3917 829.381 15.2309 827.383 15.0486 825.37 15.1026 823.385 15.3917 825.51 15.4792 827.601 15.9704 829.542 16.8389Z" fill="#F4E7DB" transform="matrix(1.01544 0 0 1 235 214.245)"/><path d="M820.399 15.6214C821.398 15.5976 822.395 15.521 823.385 15.3917 822.384 15.367 821.385 15.444 820.399 15.6214Z" fill="#F4E7DB" transform="matrix(1.01544 0 0 1 235 214.245)"/><path d="M842.154 20.6754C841.573 19.9582 840.76 19.4634 839.857 19.274L840.96 20.4457Z" fill="#F4E7DB" transform="matrix(1.01544 0 0 1 235 214.245)"/><path d="M840.937 20.6754 840.937 20.6754 838.226 20.147Z" fill="#F4E7DB" transform="matrix(1.01544 0 0 1 235 214.245)"/><path d="M842.476 20.8132 842.154 20.8132C842.246 20.8821 842.315 20.9281 842.476 20.8132Z" fill="#F4E7DB" transform="matrix(1.01544 0 0 1 235 214.245)"/><path d="M855.846 24.2132C853.87 24.4429 849.85 24.374 853.549 25.8442 854.973 25.4077 852.882 24.5578 855.846 24.2132Z" fill="#F4E7DB" transform="matrix(1.01544 0 0 1 235 214.245)"/><path d="M843.831 22.2835 847.208 23.0645C847.208 22.8118 846.634 22.3294 847.599 22.2145Z" fill="#F4E7DB" transform="matrix(1.01544 0 0 1 235 214.245)"/><path d="M842.108 22.3294 843.831 22.2835 842.568 22.0078 842.108 22.3294Z" fill="#F4E7DB" transform="matrix(1.01544 0 0 1 235 214.245)"/><path d="M826.096 17.5741C824.419 17.6564 822.738 17.5407 821.088 17.2295 823.009 17.774 824.957 18.2188 826.923 18.5619 827.245 18.3781 828.187 17.9187 826.096 17.5741Z" fill="#F4E7DB" transform="matrix(1.01544 0 0 1 235 214.245)"/><path d="M833.287 19.1362 832.942 19.1362C833.126 19.2511 833.287 19.297 833.287 19.1362Z" fill="#F4E7DB" transform="matrix(1.01544 0 0 1 235 214.245)"/><path d="M803.124 13.9903 803.399 14.1971 803.491 14.0593 803.124 13.9903Z" fill="#F4E7DB" transform="matrix(1.01544 0 0 1 235 214.245)"/><path d="M827.222 18.7916C828.263 19.1502 829.379 19.2294 830.461 19.0213 829.335 19.0213 828.164 18.7687 826.923 18.5619 826.763 18.6768 826.74 18.7687 827.222 18.7916Z" fill="#F4E7DB" transform="matrix(1.01544 0 0 1 235 214.245)"/><path d="M815.322 15.1619C816.057 15.5065 816.884 15.8511 817.757 16.1727 817.068 15.7133 815.644 14.9782 815.322 15.1619Z" fill="#F4E7DB" transform="matrix(1.01544 0 0 1 235 214.245)"/><path d="M832.506 18.7687 832.735 18.7687C832.276 18.3781 832.322 18.5849 832.506 18.7687Z" fill="#F4E7DB" transform="matrix(1.01544 0 0 1 235 214.245)"/><path d="M832.506 18.7687C831.816 18.7861 831.132 18.8707 830.461 19.0213 831.288 19.0643 832.115 19.0643 832.942 19.0213 832.788 18.9534 832.641 18.8686 832.506 18.7687Z" fill="#F4E7DB" transform="matrix(1.01544 0 0 1 235 214.245)"/><path d="M796.576 19.2281C797.013 18.3781 801.01 18.2173 804.18 19.7794 807.58 19.7794 805.972 16.3565 803.399 14.1971 803.216 14.5876 803.147 14.9322 799.678 14.8633 800.78 15.5755 806.983 17.3443 803.974 17.643 799.379 17.3214 800.367 16.6781 798.276 15.8282 799.93 17.2754 792.304 16.4484 792.993 18.2633L797.013 18.2633C797.151 18.6308 795.543 18.7916 796.576 19.2281Z" fill="#F4E7DB" transform="matrix(1.01544 0 0 1 235 214.245)"/><path d="M809.809 15.4606 811.233 15.5984C809.623 15.0889 808.081 14.387 806.638 13.5079 804.341 13.5079 803.698 13.7836 803.491 14.0593L810.383 15.4146Z" fill="#F4E7DB" transform="matrix(1.01544 0 0 1 235 214.245)"/><path d="M817.459 16.7241C816.195 17.5052 812.864 17.2984 814.633 18.7227 818.722 19.3889 817.642 18.4241 820.146 18.447 813.53 17.5052 822.145 18.2403 817.482 16.8389 818.814 16.8389 819.986 17.0687 821.088 17.2295 819.917 16.8849 818.791 16.5403 817.757 16.1727L817.895 16.1727 817.895 16.1727C818.171 16.3565 818.24 16.4484 817.895 16.3106L817.826 16.3106C817.737 16.4448 817.608 16.5488 817.459 16.6092 815.598 16.0809 817.206 16.3106 817.826 16.3106 817.826 16.3106 817.826 16.3106 817.826 16.1727L817.826 16.1727 811.164 15.5295C813.236 16.0573 815.338 16.4563 817.459 16.7241Z" fill="#F4E7DB" transform="matrix(1.01544 0 0 1 235 214.245)"/><path d="M849.666 27.3604C849.556 27.314 849.482 27.2054 849.482 27.0847 849.046 27.1537 848.862 27.1996 849.666 27.3604Z" fill="#F4E7DB" transform="matrix(1.01544 0 0 1 235 214.245)"/><path d="M847.047 26.3266C847.863 26.0808 848.736 26.0808 849.551 26.3266 850.861 26.832 849.551 26.7861 849.551 27.1077 850.539 27.1077 852.951 26.9699 850.103 26.005L849.597 26.005C847.661 25.5265 845.848 24.6331 844.291 23.3862 844.971 24.5649 845.915 25.5711 847.047 26.3266Z" fill="#F4E7DB" transform="matrix(1.01544 0 0 1 235 214.245)"/><path d="M832 21.7781 826.441 21.2956 829.083 22.6281 829.083 22.0997C832.115 22.9726 831.61 22.0997 832 21.7781Z" fill="#F4E7DB" transform="matrix(1.01544 0 0 1 235 214.245)"/><path d="M802.595 13.3931 803.514 12.4741 800.068 13.3701 802.595 13.3931Z" fill="#F4E7DB" transform="matrix(1.01544 0 0 1 235 214.245)"/><path d="M795.428 12.2444 795.841 11.3944 793.866 11.6012 795.428 12.2444Z" fill="#F4E7DB" transform="matrix(1.01544 0 0 1 235 214.245)"/><path d="M386.699 29.428 385.022 29.428C385.58 29.4652 386.14 29.4652 386.699 29.428Z" fill="#F4E7DB" transform="matrix(1.01544 0 0 1 235 214.245)"/><path d="M398.644 30.1861 398.966 29.7496C398.392 29.9793 398.162 30.1401 398.644 30.1861Z" fill="#F4E7DB" transform="matrix(1.01544 0 0 1 235 214.245)"/><path d="M616.861 7.42016C614.403 6.82288 611.624 5.76613 612.014 6.75396L612.841 7.67286C614.16 7.37459 615.518 7.28927 616.861 7.42016Z" fill="#F4E7DB" transform="matrix(1.01544 0 0 1 235 214.245)"/><path d="M496.025 23.478 496.76 23.7537 498.3 22.697Z" fill="#F4E7DB" transform="matrix(1.01544 0 0 1 235 214.245)"/><path d="M494.578 27.682 491.408 27.1996C492.451 27.4376 493.51 27.5989 494.578 27.682Z" fill="#F4E7DB" transform="matrix(1.01544 0 0 1 235 214.245)"/><path d="M321.939 22.8348 319.94 23.5929C322.881 23.9834 321.617 23.2943 321.939 22.8348Z" fill="#F4E7DB" transform="matrix(1.01544 0 0 1 235 214.245)"/><path d="M721.341 2.98644C719.604 2.56359 717.838 2.27937 716.057 2.13646 718.538 2.82564 720.514 3.79049 721.341 2.98644Z" fill="#F4E7DB" transform="matrix(1.01544 0 0 1 235 214.245)"/><path d="M392.051 19.2281C391.04 19.2281 390.604 19.5038 390.627 19.7105 391.661 19.6186 392.235 19.4808 392.051 19.2281Z" fill="#F4E7DB" transform="matrix(1.01544 0 0 1 235 214.245)"/><path d="M710.038 1.83781 711.141 2.13646C712.777 2.00976 714.422 2.00976 716.057 2.13646 714.118 1.47144 712.032 1.36791 710.038 1.83781Z" fill="#F4E7DB" transform="matrix(1.01544 0 0 1 235 214.245)"/><path d="M19.8024 16.2187C20.4686 16.0809 21.5713 16.0809 22.6051 16.0809 21.6686 16.025 20.7289 16.0712 19.8024 16.2187Z" fill="#F4E7DB" transform="matrix(1.01544 0 0 1 235 214.245)"/><path d="M766.551 7.12152C768.09 7.28233 766.804 7.12152 766.551 7.12152Z" fill="#F4E7DB" transform="matrix(1.01544 0 0 1 235 214.245)"/><path d="M773.397 12.1066C773.052 12.1066 772.777 12.2674 772.708 12.4741 772.885 12.2699 773.131 12.1388 773.397 12.1066Z" fill="#F4E7DB" transform="matrix(1.01544 0 0 1 235 214.245)"/><path d="M694.509 7.74178 694.371 7.74178C694.831 7.94853 694.762 7.90259 694.509 7.74178Z" fill="#F4E7DB" transform="matrix(1.01544 0 0 1 235 214.245)"/><path d="M768.802 7.90259C768.171 7.67103 767.528 7.47923 766.873 7.32827 767.286 7.44314 767.769 7.62692 768.802 7.90259Z" fill="#F4E7DB" transform="matrix(1.01544 0 0 1 235 214.245)"/><path d="M768.55 7.39719 769.882 7.67286C770.089 7.53503 769.928 7.42016 768.55 7.39719Z" fill="#F4E7DB" transform="matrix(1.01544 0 0 1 235 214.245)"/><path d="M764.415 6.89179C765.244 6.99951 766.064 7.16066 766.873 7.37422 766.574 7.37422 766.459 7.19044 766.551 7.16746Z" fill="#F4E7DB" transform="matrix(1.01544 0 0 1 235 214.245)"/><path d="M214.036 14.312 213.692 14.312C212.152 14.6565 212.842 14.5647 214.036 14.312Z" fill="#F4E7DB" transform="matrix(1.01544 0 0 1 235 214.245)"/><path d="M572.616 22.8118C574.169 21.6906 576.094 21.2131 577.992 21.4794L575.901 18.7916Z" fill="#F4E7DB" transform="matrix(1.01544 0 0 1 235 214.245)"/><path d="M358.121 26.901 361.888 28.2793C357.041 29.1753 353.687 28.2793 357.179 29.9334 357.661 28.4172 361.429 28.8307 365.219 29.1753 369.01 29.5198 372.846 29.7955 373.259 28.2793L375.764 29.1982C375.028 29.0834 374.891 29.1982 374.178 29.1982 379.026 31.1968 378.084 27.2915 384.493 28.2334 386.79 28.6469 388.238 29.2212 386.79 29.4739L391.844 29.0834C393.292 29.0834 392.901 29.7266 391.454 29.5888L399.104 29.7036 399.104 29.7036C400.687 29.1626 402.297 28.7103 403.928 28.3482 405.835 28.8996 402.94 28.6469 403.423 29.0604L407.673 28.4861C409.372 29.382 405.835 30.0023 402.917 29.7496 406.754 33.0347 406.455 29.1982 414.932 31.1509L410.912 31.4725C413.462 33.2874 416.586 32.6901 421.112 33.7698 420.032 33.1725 412.106 30.8293 416.701 30.1401 418.522 30.4838 420.397 30.4211 422.191 29.9563 422.191 31.036 424.626 30.8752 427.659 30.7833L427.429 32.2536C430.714 31.8171 430.461 31.059 432.368 30.3928 434.413 30.1656 436.423 31.0399 437.652 32.6901 443.487 32.8739 433.609 30.8752 440.5 30.5536 445.205 30.9322 449.94 30.5286 454.514 29.359 457.914 29.7496 453.939 30.2779 455.18 30.6455L458.143 29.382C458.879 29.382 458.649 29.7725 458.534 29.9563 461.061 29.428 458.695 28.4631 462.669 27.9577 463.68 26.3037 470.916 30.1171 475.74 27.9577 476.981 28.3253 475.189 28.8766 475.603 29.428 479.414 28.7388 483.158 27.7165 486.79 26.3726L491.546 27.1077C488.031 26.1658 492.373 24.6496 496.14 23.3862 494.9 22.9037 493.843 22.5132 493.108 22.3064 495.152 21.9389 497.197 21.5943 499.219 21.1808 499.977 21.3646 499.379 21.9159 498.414 22.6051L499.517 22.1686C501.814 22.5591 500.666 23.501 499.15 24.4659L496.852 23.7078C495.382 24.6726 494.004 25.7294 494.371 26.5793 495.008 26.3117 495.683 26.1413 496.37 26.074 495.979 26.3266 495.75 26.5564 495.933 26.6942 496.117 26.832 496.783 26.4875 497.771 26.051L499.264 27.5901 499.563 26.9239 507.695 27.5672C513.37 25.5456 518.217 22.7889 527.314 21.5024 525.132 22.8348 526.969 23.478 526.947 24.9023 524.351 23.5699 519.894 26.028 515.116 26.028 517.62 26.028 517.114 26.7402 516.494 27.0158L524.879 25.0861C524.879 26.2577 526.74 25.8442 528.991 26.1658 527.153 24.0064 535.194 24.1213 538.571 23.1335 538.846 23.8915 538.088 24.7415 533.976 24.9023 538.754 26.2577 539.765 21.7321 544.429 22.8348 543.395 22.8348 542.844 22.8348 542.476 23.2713 544.773 22.3983 550.7 22.4672 549.368 23.2713L548.334 23.2713C555.226 23.0186 569.009 21.5943 569.905 19.5038 569.731 20.517 569.372 21.49 568.849 22.3754L580.335 14.7025C579.416 16.4714 583.896 20.0781 578.336 21.5943 580.677 21.6818 583.016 21.3711 585.251 20.6754 584.125 20.5375 582.265 18.516 583.758 18.2173 586.432 19.1026 589.186 19.7183 591.982 20.0551 590.305 19.8484 591.982 17.0687 594.509 16.9079 594.141 17.3443 594.991 19.4808 594.05 19.8254L600.321 16.6552C598.736 17.2754 600.321 18.9524 601.768 19.4578 601.056 19.0213 607.397 18.9524 609.12 18.516L606.294 18.3781C613.668 18.0106 613.186 14.0133 620.468 13.3931 619.641 14.0133 618.63 16.8849 622.375 16.8389 623.937 15.3457 629.267 9.7404 635.561 8.0634L636.871 8.68366 641.741 7.32827C636.809 10.9097 631.582 14.0682 626.119 16.77 628.922 17.0916 626.969 17.597 631.081 17.0916 632.598 17.643 628.945 18.4011 627.727 18.5619L637.376 18.0335C636.779 16.5403 644.543 15.7363 644.038 14.4957L633.792 17.1606C633.218 15.6673 639.352 12.1755 646.174 11.739 647.966 12.1755 645.164 14.6106 645.37 15.116 647.608 14.202 650.006 13.7488 652.423 13.7836L649.666 14.8403C653.434 15.116 655.57 12.2904 660.211 13.3701 661.773 13.3701 664.989 14.9782 665.196 14.0363 662.554 12.4971 661.612 7.14449 663.243 5.6283L667.838 6.24856C669.738 6.54608 671.612 6.99159 673.443 7.58097 676.085 8.86744 669.721 11.0269 671.996 12.1755 671.996 11.739 673.443 11.1647 674.04 10.9809 675.694 11.2796 673.42 12.3133 676.958 11.9917 677.509 10.4066 684.217 11.8539 678.612 10.6134 682.081 10.0161 682.31 10.7742 686.423 10.6134 685.09 9.57959 690.052 7.14449 693.59 6.73098 693.383 7.12152 694.187 7.64989 694.555 7.87962 701.768 8.0634 705.605 8.75258 712.29 9.16608 712.91 9.57959 716.103 10.1999 714.587 10.7971 715.855 10.3453 717.192 10.1198 718.538 10.1309 722.444 11.6931 713.944 10.1309 716.884 11.8998 717.183 11.0498 722.26 10.8201 725.246 10.5674 724.442 9.02825 718.355 9.87824 715.506 10.3147 715.506 9.32689 716.884 8.40799 719.09 7.64989 720.374 7.23119 721.688 6.90114 723.018 6.66207 724.511 6.45531 726.188 6.2945 727.957 6.22559 733.585 6.22559 730.254 7.67286 731.265 7.48908 741.718 8.70663 740.454 4.91615 749.115 7.32827 752.423 8.95933 748.977 9.78635 749.62 10.7742 745.026 10.7742 742.729 9.14311 739.696 8.84447L743.418 9.87824C741.41 10.0571 739.386 9.91752 737.422 9.46473 740.962 10.3859 744.573 11.0008 748.219 11.3025 750.746 11.6242 753.411 11.9687 755.961 12.3593 758.226 12.7236 760.473 13.1989 762.692 13.7836 764.162 13.5998 766.689 13.5309 765.609 12.8647L763.036 12.6579C760.854 11.3485 768.021 11.9917 764.874 11.0728 768.943 10.5157 773.078 10.7183 777.073 11.6701L777.739 13.2093C776.448 12.3423 774.902 11.9375 773.351 12.0606 775.442 11.762 780.358 15.1619 782.839 13.6917L779.646 12.1755C783.183 12.1755 787.663 11.2566 791.821 12.4282 790.121 10.7053 790.81 12.4282 788.076 10.2917 790.374 12.7268 777.211 8.43096 781.185 11.2107 778.382 8.91339 775.97 9.51067 772.156 7.3053 772.156 7.78773 773.443 8.40799 769.859 7.64989 769.588 7.78044 769.303 7.8806 769.009 7.94853L768.779 7.94853 768.963 7.94853C768.802 7.94853 768.779 7.94853 768.963 7.94853 769.597 8.14851 770.183 8.47695 770.686 8.91339 768.734 9.69446 763.059 8.91339 761.061 9.09717 758.97 8.5688 762.026 8.70663 760.923 8.04043L757.936 8.45393C757.799 7.35125 752.492 6.15667 757.615 6.15667L753.02 5.58235C750.259 4.62534 747.351 4.15129 744.428 4.18102 742.315 3.6986 738.915 4.66345 740.868 4.18102L733.654 4.18102 733.654 3.92832C730.117 3.56076 726.464 3.65265 722.696 3.56076 718.766 3.68918 714.835 3.256 711.026 2.27429 708.074 2.50618 705.111 2.50618 702.159 2.27429L701.401 1.37836C698.345 1.677 692.212 0.43648 690.856 1.37836 687.525-1.24052 675.924 1.37836 670.503 1.0108L670.365 2.1824C666.397 2.377 662.455 2.91504 658.58 3.79049L658.947 4.77831C655.088 5.99586 648.656 4.77831 642.545 5.6283 642.912 5.19182 644.497 5.14587 645.623 5.26074 638.019 3.6986 630.277 8.54582 623.432 7.558 622.136 8.01545 620.751 8.15722 619.388 7.97151L619.802 7.97151 619.113 7.97151C618.355 7.97151 617.574 7.74178 616.815 7.67286 617.47 7.84495 618.139 7.96023 618.814 8.01745 617.098 8.23935 615.396 8.55377 613.714 8.95933L612.795 7.92556 612.359 7.92556C610.429 7.69584 610.889 8.59177 611.991 9.32689 611.144 9.55283 610.321 9.86057 609.533 10.2458 607.833 8.61474 604.571 11.3485 602.32 9.67148 601.125 10.7282 592.786 11.2566 591.959 13.3012 591.959 13.0485 591.293 12.9795 592.327 12.8647 590.25 12.7013 588.159 12.9351 586.17 13.5539L585.136 12.2214 580.656 14.5187C577.762 13.9214 576.544 13.5539 579.232 12.2214 572.616 14.5187 573.811 13.3701 568.182 15.5525L568.389 14.6106C566.345 14.8403 563.151 16.3565 561.842 15.7133 557.087 14.3579 539.03 17.3214 527.084 16.6552 529.565 19.1822 521.502 15.8282 521.18 17.9416 520.445 17.3443 518.883 17.0916 520.652 16.4254 514.656 17.4362 511.463 16.0349 507.466 18.0565 506.731 17.4592 508.683 17.0457 508.063 16.7011 507.581 16.8849 506.179 17.3903 505.513 17.0457 504.847 16.7011 506.363 16.4484 507.305 16.1268 501.148 16.6322 500.643 18.6308 500.413 20.4916 498.102 19.7468 495.582 20.0578 493.521 21.3416 492.396 20.7902 490.558 20.2619 494.371 19.8484 492.212 19.8484 481.162 19.6416 481.001 21.1119 479.802 20.9279 478.578 21.0142 477.417 21.3646 472.57 21.3646 472.157 21.3646 467.401 21.7321L468.734 21.9159C466.919 23.7537 464.783 22.4443 460.946 22.7659L460.946 22.5821C452.125 21.5713 457.156 23.3172 448.449 22.1227L448.954 23.2024C448.173 25.6375 441.236 21.9159 436.228 22.8578L438.042 23.478C435.286 24.3051 430.347 20.3078 427.613 20.0321 427.016 19.8484 428.555 19.7105 429.382 19.5497 422.191 18.1943 428.44 21.02 423.087 21.2956 422.099 20.4916 424.374 19.343 420.79 19.1362 419.021 18.4241 410.268 21.5483 405.398 19.8024 406.455 20.4686 407.512 21.1119 405.008 21.4335 401.171 21.4335 394.831 18.7227 391.224 20.3997 390.765 20.193 390.581 20.0321 390.581 19.8713 387.64 20.147 381.07 19.9862 379.232 20.8592 376.935 16.8849 360.854 20.8592 361.383 17.3214L352.446 16.4025 352.722 16.0809C349.469 15.2231 346.051 15.2231 342.798 16.0809 341.511 15.6673 342.522 15.4836 342.637 15.2998 334.367 13.462 333.448 13.462 326.257 14.266L325.66 13.0485C323.039 12.7973 320.452 12.2738 317.941 11.4863 313.806 10.4876 309.561 10.0167 305.306 10.085 305.306 9.94715 305.582 9.76337 306.271 9.67148 296.83 10.108 284.057 4.59453 280.266 8.59177L274.041 9.30392C282.012 10.039 272.777 11.0269 276.016 11.8998 272.869 11.8998 267.976 10.2228 271.835 10.1999L272.433 10.4526C273.191 9.39581 270.733 9.07419 268.091 8.84447 265.449 8.61474 262.692 8.54582 262.83 7.8107 254.95 7.64989 247.186 7.14449 239.559 6.89179 231.932 6.63909 224.397 6.27153 217.046 6.34045L218.768 7.99448 213.646 7.99448C212.29 7.62692 211.808 6.70801 215.483 6.73098 213.323 6.28527 211.074 6.74171 209.258 7.99448 202.067 7.51205 212.015 5.94991 209.809 5.97289L206.823 6.17964 207.512 6.36342C205.368 7.40964 203.005 7.92942 200.62 7.87962 197.771 7.60394 199.104 6.89179 198.001 6.89179 198.001 6.75396 197.634 6.70801 196.324 6.89179L189.846 6.89179 192.488 8.13232C189.639 8.84447 186.4 8.29312 189.432 9.67148 184.976 7.51205 165.403 9.78635 162.623 9.18906 158.442 10.2419 154.139 10.7362 149.828 10.6593 151.068 10.8661 151.872 12.3133 147.53 12.3823 148.909 9.21203 139.743 11.4633 136.205 9.44176 139.329 10.7282 124.236 10.4755 129.129 12.2904 125.591 12.2904 128.854 11.1647 126.143 10.5904 117.85 12.2674 107.65 10.912 97.3351 11.9228 97.1973 12.3363 98.9661 12.8417 96.7838 13.5768L91.2014 11.8998C89.1798 12.1985 89.4555 14.3349 85.642 13.1404 86.1934 13.462 87.0204 13.9214 85.642 14.1282 65.3112 13.3471 44.2913 18.0795 23.6159 15.0241 26.4185 15.7133 24.5578 15.8741 22.4443 15.966 23.8226 16.1038 22.4443 16.9538 22.7429 17.5052 20.0092 17.1606 17.1146 16.77 14.243 16.3106 12.7268 17.8497 5.05398 16.5862 4.15805 18.0565L6.89179 17.7349C3.28509 19.5267 12.0377 21.4564 11.4863 23.6618 15.5065 21.6632 22.3294 26.2807 28.9226 23.2483 30.4158 23.6388 27.705 24.0064 28.5091 24.4888 30.8433 23.3659 33.4757 23.0197 36.0211 23.501L35.5846 23.7537C46.221 23.0186 50.8385 23.7537 62.8302 23.7537L62.0261 22.7199C63.49 22.7124 64.9487 22.8899 66.368 23.2483 69.2395 21.4564 59.1546 23.547 61.7734 21.5943 65.2883 23.6388 79.8759 20.6524 82.311 23.0186 86.2623 22.7889 81.0934 21.824 85.0447 21.5943L86.1244 22.2145 87.0663 21.2956C89.6622 21.2956 91.0176 22.0537 91.1554 22.6281 90.3307 22.7009 89.5104 22.8159 88.6974 22.9726 92.1203 23.5929 98.1391 22.1456 99.3107 22.3524L95.4973 22.1456C106.134 20.8592 119.458 20.974 129.635 18.9984L128.831 18.516C136.71 17.1146 135.217 18.7227 143.901 17.8038L143.602 17.9416C145.675 17.2772 147.835 16.9212 150.011 16.8849 147.852 17.597 154.215 17.8268 151.367 18.6308 159.913 17.2065 155.571 17.62 161.176 15.4376L162.508 16.2417C164.463 15.1303 166.67 14.5372 168.918 14.5187 165.38 15.4146 171.743 15.6673 167.792 16.816 176.981 18.2403 181.277 14.3809 185.573 16.816 189.662 14.289 177.624 15.8282 179.945 15.2309 177.946 14.5417 183.345 13.3241 186.216 13.462 189.088 13.5998 191.293 16.3795 198.621 16.0809 197.886 16.0809 197.84 16.2876 197.105 16.2876 199.862 16.816 202.458 15.3228 205.858 16.2876 207.696 14.8174 210.223 16.2876 210.728 14.4268L203.997 15.0241C207.811 14.4268 211.348 12.2214 217.781 13.1863 216.623 13.7236 215.404 14.1171 214.151 14.3579 215.989 14.8633 217.689 13.9444 219.595 14.3579 219.067 16.1957 211.417 14.8174 207.374 16.3565 209.35 17.0457 215.07 14.8863 213.048 16.8849 215.943 14.4038 220.147 17.1606 225.132 15.1849L224.81 16.2876C226.062 15.8917 227.359 15.6525 228.67 15.5755L226.074 17.0227C230.071 15.7363 233.793 18.0565 237.56 17.4133 229.497 17.4133 235.745 16.0809 232.345 15.2768 242.292 13.8755 238.043 18.1254 249.161 17.5741 247.645 17.5741 243.51 16.8849 245.876 16.3795 247.985 16.548 250.064 16.996 252.056 17.7119 259.407 17.7119 250.953 16.5633 254.1 15.966 256.581 17.3673 257.73 15.5295 260.992 15.1849L260.992 16.2876C269.354 17.2525 263.289 13.9903 270.824 15.2079L267.562 16.5633 271.514 16.3795 270.641 17.597C273.882 17.0133 277.209 17.0758 280.427 17.7808 279.508 16.9308 281.093 15.7822 284.815 15.943 287.296 16.793 283.345 16.8849 288.582 17.1606 287.149 18.1111 285.306 18.1821 283.804 17.3443 283.528 17.6889 282.586 17.9646 282.311 18.3092 285.173 18.9068 288.093 19.1765 291.017 19.1132 290.331 19.0517 289.653 18.913 288.996 18.6997L296.692 17.7808C297.863 18.3092 296.875 18.5619 295.911 18.8146 297.45 18.8146 298.575 18.4011 300.827 18.493 300.161 19.343 300.206 20.2619 296.99 20.4227 299.425 20.4227 301.861 20.124 304.296 20.0781 304.732 20.5375 307.879 21.5713 306.915 21.801 310.82 22.7659 316.908 21.1348 322.122 22.5362 322.777 22.3452 323.464 22.2751 324.144 22.3294 329.083 23.1564 333.333 24.9253 339.467 24.6267L342.637 26.6712C347.346 26.9469 338.318 24.0294 346.175 24.4888 351.757 24.7415 348.059 26.1429 349.919 26.7861 354.137 25.7643 358.555 25.9152 362.692 27.2226 361.162 27.2116 359.637 27.104 358.121 26.901ZM416.471 30.2779C415.322 30.4847 413.048 31.1509 412.244 30.4847 413.508 29.2442 414.541 29.8644 416.471 30.2779ZM504.686 25.0632C503.512 25.4378 502.253 25.4378 501.079 25.0632 502.274 24.8789 503.491 24.8789 504.686 25.0632ZM749.597 5.76613 749.459 5.76613C747.001 5.07695 747.874 5.35263 749.597 5.76613ZM754.743 6.84585C755.295 6.84585 755.272 6.61612 755.065 6.43234 754.102 6.62005 753.11 6.57277 752.17 6.2945 752.515 6.63909 753.158 6.89179 754.743 6.89179ZM197.427 7.25936 198.461 7.51205C196.186 7.90259 196.807 7.60394 197.427 7.25936Z" fill="#F4E7DB" transform="matrix(1.01544 0 0 1 235 214.245)"/><path d="M494.785 27.1996C494.555 27.0717 494.378 26.8688 494.279 26.6253 493.912 26.832 493.912 27.0388 494.785 27.1996Z" fill="#F4E7DB" transform="matrix(1.01544 0 0 1 235 214.245)"/><path d="M322.306 22.697 322.145 22.697C322.063 22.7397 321.991 22.8029 321.939 22.8808Z" fill="#F4E7DB" transform="matrix(1.01544 0 0 1 235 214.245)"/><path d="M674.017 12.566C673.305 12.5213 672.607 12.3582 671.95 12.0836 671.904 12.3593 672.386 12.566 674.017 12.566Z" fill="#F4E7DB" transform="matrix(1.01544 0 0 1 235 214.245)"/><path d="M782.448 9.18906 779.094 8.91339C780.107 9.03284 781.093 9.32009 782.012 9.76337 781.989 9.41878 781.414 8.93636 782.448 9.18906Z" fill="#F4E7DB" transform="matrix(1.01544 0 0 1 235 214.245)"/><path d="M809.809 20.8132C810.314 20.8132 810.819 20.997 811.325 20.951L811.325 20.3997C809.234 20.0781 807.741 20.2159 809.809 20.8132Z" fill="#F4E7DB" transform="matrix(1.01544 0 0 1 235 214.245)"/><path d="M784.906 13.2322C785.021 14.1971 787.204 14.2201 789.501 14.4268L789.11 14.4268C789.96 13.1863 787.433 13.2093 784.906 13.2322Z" fill="#F4E7DB" transform="matrix(1.01544 0 0 1 235 214.245)"/><path d="M790.006 14.4957C790.725 14.5639 791.44 14.679 792.143 14.8403 792.556 14.3809 791.293 14.5876 790.006 14.4957Z" fill="#F4E7DB" transform="matrix(1.01544 0 0 1 235 214.245)"/><path d="M761.405 7.14449C762.485 7.53503 762.255 6.06478 762.83 6.52423 764.231 5.53641 755.295 6.89179 761.405 7.14449Z" fill="#F4E7DB" transform="matrix(1.01544 0 0 1 235 214.245)"/><path d="M786.262 16.5633 785.618 15.2998 784.194 15.989 786.262 16.5633Z" fill="#F4E7DB" transform="matrix(1.01544 0 0 1 235 214.245)"/><path d="M768.205 12.8187 771.881 13.7836C771.881 13.5998 772.34 13.5539 772.915 13.5539 770.617 13.0485 768.159 12.4741 768.205 12.8187Z" fill="#F4E7DB" transform="matrix(1.01544 0 0 1 235 214.245)"/><path d="M772.892 13.439C773.873 13.6452 774.874 13.7377 775.878 13.7147 774.89 13.56 773.891 13.4679 772.892 13.439Z" fill="#F4E7DB" transform="matrix(1.01544 0 0 1 235 214.245)"/><path d="M781.185 16.0809 780.128 15.6673 777.555 15.139 781.185 16.0809Z" fill="#F4E7DB" transform="matrix(1.01544 0 0 1 235 214.245)"/><path d="M728.394 7.92556 724.305 7.92556C723.868 8.29312 724.948 8.61474 726.464 8.59177 727.452 8.38502 728.968 8.36204 728.394 7.92556Z" fill="#F4E7DB" transform="matrix(1.01544 0 0 1 235 214.245)"/><path d="M740.339 12.1525C739.703 11.9295 739.122 11.5687 738.639 11.0958L738.387 12.4971Z" fill="#F4E7DB" transform="matrix(1.01544 0 0 1 235 214.245)"/><path d="M728.554 11.4863C728.118 11.8539 722.604 12.1066 727.727 12.4741 728.233 12.0606 732.23 12.0836 728.554 11.4863Z" fill="#F4E7DB" transform="matrix(1.01544 0 0 1 235 214.245)"/><path d="M667.562 8.93636 668.573 8.93636 668.297 6.63909Z" fill="#F4E7DB" transform="matrix(1.01544 0 0 1 235 214.245)"/><path d="M614.38 19.6646C619.228 19.6646 615.368 18.1024 619.779 18.3551 620.836 17.6889 616.172 18.1484 617.275 17.5511 614.449 18.3781 612.887 18.3781 614.38 19.6646Z" fill="#F4E7DB" transform="matrix(1.01544 0 0 1 235 214.245)"/><path d="M617.275 17.5511C617.734 17.4133 618.217 17.2525 618.722 17.0457 618.226 17.1681 617.741 17.3373 617.275 17.5511Z" fill="#F4E7DB" transform="matrix(1.01544 0 0 1 235 214.245)"/><path d="M8.47691 15.2079 5.3756 14.7944 7.39719 15.5295 8.47691 15.2079Z" fill="#F4E7DB" transform="matrix(1.01544 0 0 1 235 214.245)"/><path d="M2.57294 17.0687 1.83781 15.5984 0 16.9768C0.852347 16.7976 1.73554 16.8292 2.57294 17.0687Z" fill="#F4E7DB" transform="matrix(1.01544 0 0 1 235 214.245)"/><path d="M425.109 33.4252 425.361 33.0806C424.879 32.6901 424.144 32.6441 422.674 32.5522Z" fill="#F4E7DB" transform="matrix(1.01544 0 0 1 235 214.245)"/><path d="M382.632 30.5766 383.367 30.6685 382.104 29.2212 382.632 30.5766Z" fill="#F4E7DB" transform="matrix(1.01544 0 0 1 235 214.245)"/><path d="M346.887 28.3942C348.334 28.6469 350.057 28.578 351.481 28.8307 348.38 28.6469 346.887 26.6712 346.887 28.3942Z" fill="#F4E7DB" transform="matrix(1.01544 0 0 1 235 214.245)"/></g></g></g></svg>