<?xml version="1.0" encoding="utf-8"?>
<!-- Generator: Adobe Illustrator 25.2.3, SVG Export Plug-In . SVG Version: 6.00 Build 0)  -->
<svg version="1.1" id="Layer_1" xmlns="http://www.w3.org/2000/svg" xmlns:xlink="http://www.w3.org/1999/xlink" x="0px" y="0px"
	 viewBox="0 0 232 230" style="enable-background:new 0 0 232 230;" xml:space="preserve">
<style type="text/css">
	.st0{clip-path:url(#SVGID_2_);}
	.st1{clip-path:url(#SVGID_4_);}
	.st2{clip-path:url(#SVGID_8_);}
	.st3{clip-path:url(#SVGID_10_);}
</style>
<g>
	<defs>
		<rect id="SVGID_1_" x="11.2" y="7.9" width="210" height="216"/>
	</defs>
	<clipPath id="SVGID_2_">
		<use xlink:href="#SVGID_1_"  style="overflow:visible;"/>
	</clipPath>
	<g transform="translate(-26 -197)" class="st0">
		<g>
			<defs>
				<polygon id="SVGID_3_" points="38,237.5 216.3,205.6 246.6,387.8 68.2,419.7 				"/>
			</defs>
			<clipPath id="SVGID_4_">
				<use xlink:href="#SVGID_3_"  style="overflow:visible;"/>
			</clipPath>
			<g class="st1">
				<g transform="translate(26.8636 197.695)">
					
						<image style="overflow:visible;enable-background:new    ;" width="231" height="228" id="img2_1_" xlink:href="1B1D07F7327140E0.png"  transform="matrix(0.9052 0 0 0.9391 37.9526 205.5974)">
					</image>
				</g>
			</g>
		</g>
		<g>
			<defs>
				<polygon id="SVGID_5_" points="38,237.5 216.3,205.6 246.6,387.8 68.2,419.7 				"/>
			</defs>
			<clipPath id="SVGID_6_">
				<use xlink:href="#SVGID_5_"  style="overflow:visible;"/>
			</clipPath>
		</g>
		<g>
			<defs>
				<rect id="SVGID_7_" x="74.3" y="242.5" width="124" height="131.5"/>
			</defs>
			<clipPath id="SVGID_8_">
				<use xlink:href="#SVGID_7_"  style="overflow:visible;"/>
			</clipPath>
			<g transform="matrix(0.000104987 0 0 0.000104987 67 237)" class="st2">
				<g>
					<defs>
						<rect id="SVGID_9_" x="74.3" y="242.5" width="124" height="131.5"/>
					</defs>
					<clipPath id="SVGID_10_">
						<use xlink:href="#SVGID_9_"  style="overflow:visible;"/>
					</clipPath>
					<g transform="scale(1.05686 1)" class="st3">
						<g transform="scale(8231.48 8231.48)">
							
								<image style="overflow:visible;enable-background:new    ;" width="150" height="162" id="img5_1_" xlink:href="1B1D07F7327140E1.png"  transform="matrix(0.7822 0 0 0.8116 70.2865 242.5099)">
							</image>
						</g>
					</g>
				</g>
			</g>
		</g>
	</g>
</g>
</svg>
