<?xml version="1.0" encoding="utf-8"?>
<!-- Generator: Adobe Illustrator 25.2.3, SVG Export Plug-In . SVG Version: 6.00 Build 0)  -->
<svg version="1.1" id="Layer_1" xmlns="http://www.w3.org/2000/svg" xmlns:xlink="http://www.w3.org/1999/xlink" x="0px" y="0px"
	 viewBox="0 0 261 260" style="enable-background:new 0 0 261 260;" xml:space="preserve">
<style type="text/css">
	.st0{clip-path:url(#SVGID_2_);}
	.st1{clip-path:url(#SVGID_4_);}
	.st2{clip-path:url(#SVGID_8_);}
	.st3{clip-path:url(#SVGID_10_);}
</style>
<g>
	<defs>
		<rect id="SVGID_1_" y="0" width="261" height="260"/>
	</defs>
	<clipPath id="SVGID_2_">
		<use xlink:href="#SVGID_1_"  style="overflow:visible;"/>
	</clipPath>
	<g transform="translate(-726 -274)" class="st0">
		<g>
			<defs>
				
					<rect id="SVGID_3_" x="766.8" y="310.3" transform="matrix(0.6517 -0.7585 0.7585 0.6517 -7.958 790.4085)" width="179.5" height="187.1"/>
			</defs>
			<clipPath id="SVGID_4_">
				<use xlink:href="#SVGID_3_"  style="overflow:visible;"/>
			</clipPath>
			<g class="st1">
				<g transform="translate(727.129 274.823)">
					
						<image style="overflow:visible;enable-background:new    ;" width="259" height="259" id="img2" xlink:href="CE2D4FA03BF1B5FF.png"  transform="matrix(1 0 0 1 727.129 274.823)">
					</image>
				</g>
			</g>
		</g>
		<g>
			<defs>
				
					<rect id="SVGID_5_" x="766.8" y="310.3" transform="matrix(0.6517 -0.7585 0.7585 0.6517 -7.958 790.4085)" width="179.5" height="187.1"/>
			</defs>
			<clipPath id="SVGID_6_">
				<use xlink:href="#SVGID_5_"  style="overflow:visible;"/>
			</clipPath>
		</g>
		<g>
			<defs>
				<rect id="SVGID_7_" x="791" y="328" width="145" height="147"/>
			</defs>
			<clipPath id="SVGID_8_">
				<use xlink:href="#SVGID_7_"  style="overflow:visible;"/>
			</clipPath>
			<g transform="matrix(0.000104987 0 0 0.000104987 791 328)" class="st2">
				<g>
					<defs>
						<rect id="SVGID_9_" x="791" y="328" width="145" height="147"/>
					</defs>
					<clipPath id="SVGID_10_">
						<use xlink:href="#SVGID_9_"  style="overflow:visible;"/>
					</clipPath>
					<g transform="matrix(1 0 0 1.00207 -0.5 -494995)" class="st3">
						<g transform="scale(4896.41 4896.41)">
							
								<image style="overflow:visible;enable-background:new    ;" width="155" height="258" id="img5" xlink:href="CE2D4FA03BF1B5FD.png"  transform="matrix(0.995 0 0 0.9962 791.4999 494247.9375)">
							</image>
						</g>
					</g>
				</g>
			</g>
		</g>
	</g>
</g>
</svg>
