<svg width="266" height="133" xmlns="http://www.w3.org/2000/svg" xmlns:xlink="http://www.w3.org/1999/xlink" overflow="hidden"><defs><clipPath id="clip0"><rect x="745" y="17" width="266" height="133"/></clipPath><clipPath id="clip1"><rect x="859" y="18" width="37" height="40"/></clipPath><clipPath id="clip2"><rect x="859" y="18" width="37" height="40"/></clipPath><clipPath id="clip3"><rect x="859" y="18" width="37" height="40"/></clipPath><clipPath id="clip4"><rect x="860" y="61" width="40" height="41"/></clipPath><clipPath id="clip5"><rect x="860" y="61" width="40" height="41"/></clipPath><clipPath id="clip6"><rect x="860" y="61" width="40" height="41"/></clipPath></defs><g clip-path="url(#clip0)" transform="translate(-745 -17)"><g clip-path="url(#clip1)"><g clip-path="url(#clip2)"><g clip-path="url(#clip3)"><path d="M0.754222 21.7647C0.754222 31.9144 7.52068 33.078 18.3815 33.078 29.2423 33.078 35.9872 30.2335 35.9872 20.1485 35.3838 2.82295-4.0728-3.46942 0.754222 21.7647Z" fill="#E6E2DF" transform="matrix(1 0 0 1.02102 859 18.6381)"/><path d="M1.22831 18.3599C0.775772 41.1805 39.2196 45.4688 35.9872 18.3599 36.0303-1.18521-3.64182-8.61969 1.22831 18.3599Z" stroke="#020100" stroke-width="1.61619" stroke-miterlimit="10" fill="none" transform="matrix(1 0 0 1.02102 859 18.6381)"/></g></g></g><g clip-path="url(#clip4)"><g clip-path="url(#clip5)"><g clip-path="url(#clip6)"><path d="M878.75 64.9167 878.75 96.0833 875.042 92.375C874.542 91.875 873.75 91.875 873.292 92.375 872.792 92.875 872.792 93.6667 873.292 94.125L879.125 99.9583C879.625 100.458 880.417 100.458 880.875 99.9583L886.708 94.125C886.958 93.875 887.083 93.5417 887.083 93.25 887.083 92.9583 886.958 92.625 886.708 92.375 886.208 91.875 885.417 91.875 884.958 92.375L881.25 96.0833 881.25 64.9167C881.25 64.2083 880.708 63.6667 880 63.6667 879.292 63.6667 878.75 64.2083 878.75 64.9167Z"/></g></g></g><text font-family="Rubik,Rubik_MSFontService,sans-serif" font-weight="700" font-size="27" direction="rtl" writing-mode="rl-tb" transform="translate(817.736 127)" x="120.167">שם המקום</text></g></svg>