<?xml version="1.0" encoding="utf-8"?>
<!-- Generator: Adobe Illustrator 25.2.3, SVG Export Plug-In . SVG Version: 6.00 Build 0)  -->
<svg version="1.1" id="Layer_1" xmlns="http://www.w3.org/2000/svg" xmlns:xlink="http://www.w3.org/1999/xlink" x="0px" y="0px"
	 viewBox="0 0 282 282" style="enable-background:new 0 0 282 282;" xml:space="preserve">
<style type="text/css">
	.st0{clip-path:url(#SVGID_2_);}
	.st1{clip-path:url(#SVGID_4_);}
	.st2{clip-path:url(#SVGID_8_);}
	.st3{clip-path:url(#SVGID_10_);}
</style>
<g>
	<defs>
		<rect id="SVGID_1_" x="11.3" y="-4.7" width="261" height="292"/>
	</defs>
	<clipPath id="SVGID_2_">
		<use xlink:href="#SVGID_1_"  style="overflow:visible;"/>
	</clipPath>
	<g transform="translate(-495 -235)" class="st0">
		<g>
			<defs>
				<polygon id="SVGID_3_" points="766.1,379.2 632,521.7 506.5,373.9 640.6,231.3 				"/>
			</defs>
			<clipPath id="SVGID_4_">
				<use xlink:href="#SVGID_3_"  style="overflow:visible;"/>
			</clipPath>
			<g class="st1">
				<g transform="translate(495.196 236.003)">
					
						<image style="overflow:visible;enable-background:new    ;" width="281" height="281" id="img2_1_" xlink:href="F4213F094C1EF8.png"  transform="matrix(0.9255 0 0 1.0355 506.4628 231.3126)">
					</image>
				</g>
			</g>
		</g>
		<g>
			<defs>
				<polygon id="SVGID_5_" points="766.1,379.2 632,521.7 506.5,373.9 640.6,231.3 				"/>
			</defs>
			<clipPath id="SVGID_6_">
				<use xlink:href="#SVGID_5_"  style="overflow:visible;"/>
			</clipPath>
		</g>
		<g>
			<defs>
				<rect id="SVGID_7_" x="567.4" y="299.6" width="149.9" height="122.2"/>
			</defs>
			<clipPath id="SVGID_8_">
				<use xlink:href="#SVGID_7_"  style="overflow:visible;"/>
			</clipPath>
			<g transform="matrix(0.000104987 0 0 0.000104987 561 302)" class="st2">
				<g>
					<defs>
						<rect id="SVGID_9_" x="567.4" y="299.6" width="149.9" height="122.2"/>
					</defs>
					<clipPath id="SVGID_10_">
						<use xlink:href="#SVGID_9_"  style="overflow:visible;"/>
					</clipPath>
					<g transform="matrix(1.0602 0 0 1 -0.5 0)" class="st3">
						<g transform="scale(5179.49 5179.49)">
							
								<image style="overflow:visible;enable-background:new    ;" width="281" height="217" id="img5_1_" xlink:href="F4213F094C1EF9.png"  transform="matrix(0.5033 0 0 0.5631 535.6219 299.6499)">
							</image>
						</g>
					</g>
				</g>
			</g>
		</g>
	</g>
</g>
</svg>
