<?xml version="1.0" encoding="utf-8"?>
<!-- Generator: Adobe Illustrator 25.2.3, SVG Export Plug-In . SVG Version: 6.00 Build 0)  -->
<svg version="1.1" id="Layer_1" xmlns="http://www.w3.org/2000/svg" xmlns:xlink="http://www.w3.org/1999/xlink" x="0px" y="0px"
	 viewBox="0 0 274 274" style="enable-background:new 0 0 274 274;" xml:space="preserve">
<style type="text/css">
	.st0{clip-path:url(#SVGID_2_);}
	.st1{clip-path:url(#SVGID_4_);}
	.st2{clip-path:url(#SVGID_8_);}
	.st3{clip-path:url(#SVGID_10_);}
</style>
<g>
	<defs>
		<rect id="SVGID_1_" x="11.6" y="9.8" width="252" height="256"/>
	</defs>
	<clipPath id="SVGID_2_">
		<use xlink:href="#SVGID_1_"  style="overflow:visible;"/>
	</clipPath>
	<g transform="translate(-234 -258)" class="st0">
		<g>
			<defs>
				<polygon id="SVGID_3_" points="403.4,522.8 246,426.2 339.6,268.7 497,365.3 				"/>
			</defs>
			<clipPath id="SVGID_4_">
				<use xlink:href="#SVGID_3_"  style="overflow:visible;"/>
			</clipPath>
			<g class="st1">
				<g transform="translate(234.4 258.942)">
					
						<image style="overflow:visible;enable-background:new    ;" width="273" height="272" id="img2_1_" xlink:href="F34E6A4729CF4D4C.png"  transform="matrix(0.9197 0 0 0.9343 245.9599 268.7099)">
					</image>
				</g>
			</g>
		</g>
		<g>
			<defs>
				<polygon id="SVGID_5_" points="403.4,522.8 246,426.2 339.6,268.7 497,365.3 				"/>
			</defs>
			<clipPath id="SVGID_6_">
				<use xlink:href="#SVGID_5_"  style="overflow:visible;"/>
			</clipPath>
		</g>
		<g>
			<defs>
				<rect id="SVGID_7_" x="287" y="336" width="159.1" height="119.6"/>
			</defs>
			<clipPath id="SVGID_8_">
				<use xlink:href="#SVGID_7_"  style="overflow:visible;"/>
			</clipPath>
			<g transform="matrix(0.000104987 0 0 0.000104987 279 331)" class="st2">
				<g>
					<defs>
						<rect id="SVGID_9_" x="287" y="336" width="159.1" height="119.6"/>
					</defs>
					<clipPath id="SVGID_10_">
						<use xlink:href="#SVGID_9_"  style="overflow:visible;"/>
					</clipPath>
					<g transform="scale(1.06323 1)" class="st3">
						<g transform="scale(5166.1 5166.1)">
							
								<image style="overflow:visible;enable-background:new    ;" width="300" height="236" id="img5_1_" xlink:href="F34E6A4729CF4D4D.png"  transform="matrix(0.4988 0 0 0.5067 269.9123 336.0341)">
							</image>
						</g>
					</g>
				</g>
			</g>
		</g>
	</g>
</g>
</svg>
