<?xml version="1.0" encoding="utf-8"?>
<!-- Generator: Adobe Illustrator 25.2.3, SVG Export Plug-In . SVG Version: 6.00 Build 0)  -->
<svg version="1.1" id="Layer_1" xmlns="http://www.w3.org/2000/svg" xmlns:xlink="http://www.w3.org/1999/xlink" x="0px" y="0px"
	 viewBox="0 0 254 253" style="enable-background:new 0 0 254 253;" xml:space="preserve">
<style type="text/css">
	.st0{clip-path:url(#SVGID_2_);}
	.st1{clip-path:url(#SVGID_4_);}
	.st2{clip-path:url(#SVGID_8_);}
	.st3{clip-path:url(#SVGID_10_);}
</style>
<g>
	<defs>
		<rect id="SVGID_1_" y="0" width="254" height="253"/>
	</defs>
	<clipPath id="SVGID_2_">
		<use xlink:href="#SVGID_1_"  style="overflow:visible;"/>
	</clipPath>
	<g transform="translate(-968 -278)" class="st0">
		<g>
			<defs>
				
					<rect id="SVGID_3_" x="1001.2" y="314.1" transform="matrix(0.8629 -0.5053 0.5053 0.8629 -54.0276 608.5629)" width="187.1" height="179.5"/>
			</defs>
			<clipPath id="SVGID_4_">
				<use xlink:href="#SVGID_3_"  style="overflow:visible;"/>
			</clipPath>
			<g class="st1">
				<g transform="translate(968.648 279.138)">
					
						<image style="overflow:visible;enable-background:new    ;" width="253" height="250" id="img2" xlink:href="21459970CDDB99F3.png"  transform="matrix(1 0 0 1 968.648 279.138)">
					</image>
				</g>
			</g>
		</g>
		<g>
			<defs>
				
					<rect id="SVGID_5_" x="1001.2" y="314.1" transform="matrix(0.8629 -0.5053 0.5053 0.8629 -54.0276 608.5629)" width="187.1" height="179.5"/>
			</defs>
			<clipPath id="SVGID_6_">
				<use xlink:href="#SVGID_5_"  style="overflow:visible;"/>
			</clipPath>
		</g>
		<g>
			<defs>
				<rect id="SVGID_7_" x="1025" y="290" width="145" height="240"/>
			</defs>
			<clipPath id="SVGID_8_">
				<use xlink:href="#SVGID_7_"  style="overflow:visible;"/>
			</clipPath>
			<g transform="matrix(0.000104987 0 0 0.000104987 1025 290)" class="st2">
				<g>
					<defs>
						<rect id="SVGID_9_" x="1025" y="290" width="145" height="240"/>
					</defs>
					<clipPath id="SVGID_10_">
						<use xlink:href="#SVGID_9_"  style="overflow:visible;"/>
					</clipPath>
					<g transform="matrix(1.00694 0 0 1 0 -0.25)" class="st3">
						<g transform="scale(9144 9144)">
							
								<image style="overflow:visible;enable-background:new    ;" width="150" height="250" id="img5" xlink:href="21459970CDDB99F1.png"  transform="matrix(0.96 0 0 0.96 1017.9355 290.25)">
							</image>
						</g>
					</g>
				</g>
			</g>
		</g>
	</g>
</g>
</svg>
