<?xml version="1.0" encoding="utf-8"?>
<!-- Generator: Adobe Illustrator 25.2.3, SVG Export Plug-In . SVG Version: 6.00 Build 0)  -->
<svg version="1.1" id="Layer_1" xmlns="http://www.w3.org/2000/svg" xmlns:xlink="http://www.w3.org/1999/xlink" x="0px" y="0px"
	 viewBox="0 0 283 279" style="enable-background:new 0 0 283 279;" xml:space="preserve">
<style type="text/css">
	.st0{clip-path:url(#SVGID_2_);}
	.st1{clip-path:url(#SVGID_4_);}
	.st2{clip-path:url(#SVGID_8_);}
	.st3{clip-path:url(#SVGID_10_);}
</style>
<g>
	<defs>
		<rect id="SVGID_1_" x="14.1" y="12.7" width="254" height="253"/>
	</defs>
	<clipPath id="SVGID_2_">
		<use xlink:href="#SVGID_1_"  style="overflow:visible;"/>
	</clipPath>
	<g transform="translate(-969 -213)" class="st0">
		<g>
			<defs>
				<polygon id="SVGID_3_" points="1147.3,226.7 1236.7,381 1072.9,477.9 983.5,323.6 				"/>
			</defs>
			<clipPath id="SVGID_4_">
				<use xlink:href="#SVGID_3_"  style="overflow:visible;"/>
			</clipPath>
			<g class="st1">
				<g transform="translate(969.486 214.09)">
					
						<image style="overflow:visible;enable-background:new    ;" width="283" height="278" id="img2_1_" xlink:href="B68652774F543077.png"  transform="matrix(0.8975 0 0 0.9068 983.5 226.729)">
					</image>
				</g>
			</g>
		</g>
		<g>
			<defs>
				<polygon id="SVGID_5_" points="1147.3,226.7 1236.7,381 1072.9,477.9 983.5,323.6 				"/>
			</defs>
			<clipPath id="SVGID_6_">
				<use xlink:href="#SVGID_5_"  style="overflow:visible;"/>
			</clipPath>
		</g>
		<g>
			<defs>
				<rect id="SVGID_7_" x="1037.8" y="290.1" width="149.9" height="122.4"/>
			</defs>
			<clipPath id="SVGID_8_">
				<use xlink:href="#SVGID_7_"  style="overflow:visible;"/>
			</clipPath>
			<g transform="matrix(0.000104987 0 0 0.000104987 1030 284)" class="st2">
				<g>
					<defs>
						<rect id="SVGID_9_" x="1037.8" y="290.1" width="149.9" height="122.4"/>
					</defs>
					<clipPath id="SVGID_10_">
						<use xlink:href="#SVGID_9_"  style="overflow:visible;"/>
					</clipPath>
					<g transform="matrix(1.02674 0 0 1 -1 0)" class="st3">
						<g transform="scale(5164.16 5164.16)">
							
								<image style="overflow:visible;enable-background:new    ;" width="300" height="249" id="img5_1_" xlink:href="B68652774F543075.png"  transform="matrix(0.4866 0 0 0.4916 1011.7584 290.1241)">
							</image>
						</g>
					</g>
				</g>
			</g>
		</g>
	</g>
</g>
</svg>
