<svg width="695" height="280" xmlns="http://www.w3.org/2000/svg" xmlns:xlink="http://www.w3.org/1999/xlink" overflow="hidden"><defs><clipPath id="clip0"><rect x="189" y="361" width="695" height="280"/></clipPath><clipPath id="clip1"><rect x="823" y="551" width="37" height="37"/></clipPath><clipPath id="clip2"><rect x="823" y="551" width="37" height="37"/></clipPath><clipPath id="clip3"><rect x="823" y="551" width="37" height="37"/></clipPath></defs><g clip-path="url(#clip0)" transform="translate(-189 -361)"><rect x="200" y="366" width="684" height="273" fill="#E3D8C4"/><text font-family="OS Luizi Round_FFC,OS Luizi Round_FFC_MSFontService,sans-serif" font-weight="400" font-size="59" direction="rtl" writing-mode="rl-tb" transform="translate(398.011 515)" x="268.5">קוקטייל אבטיח</text><rect x="200" y="368" width="683" height="272" fill="#E3D8C4"/><text font-family="Rubik,Rubik_MSFontService,sans-serif" font-weight="400" font-size="19" direction="rtl" writing-mode="rl-tb" transform="translate(497.909 453)" x="365.167">חתכו את ראש האבטיח ורוקנו את תכולתו לבלנדר</text><text font-family="Rubik,Rubik_MSFontService,sans-serif" font-weight="400" font-size="19" transform="translate(493.409 453)"> </text><text font-family="Rubik,Rubik_MSFontService,sans-serif" font-weight="400" font-size="19" direction="rtl" writing-mode="rl-tb" transform="translate(717.242 475)" x="145.833">לבלנדר הוסיפו קרח</text><text font-family="Rubik,Rubik_MSFontService,sans-serif" font-weight="400" font-size="19" direction="rtl" writing-mode="rl-tb" transform="translate(708.076 475)" x="9.16667">, </text><text font-family="Rubik,Rubik_MSFontService,sans-serif" font-weight="400" font-size="19" direction="rtl" writing-mode="rl-tb" transform="translate(643.742 475)" x="64.3333">מיץ לימון</text><text font-family="Rubik,Rubik_MSFontService,sans-serif" font-weight="400" font-size="19" direction="rtl" writing-mode="rl-tb" transform="translate(634.576 475)" x="9.16667">, </text><text font-family="Rubik,Rubik_MSFontService,sans-serif" font-weight="400" font-size="19" direction="rtl" writing-mode="rl-tb" transform="translate(568.076 475)" x="66.5">עלי נענע</text><text font-family="Rubik,Rubik_MSFontService,sans-serif" font-weight="400" font-size="19" direction="rtl" writing-mode="rl-tb" transform="translate(558.909 475)" x="9.16667">, </text><text font-family="Rubik,Rubik_MSFontService,sans-serif" font-weight="400" font-size="19" direction="rtl" writing-mode="rl-tb" transform="translate(444.409 475)" x="114.5">יין רוזה ורום לבן</text><text font-family="Rubik,Rubik_MSFontService,sans-serif" font-weight="400" font-size="19" transform="translate(439.909 475)"> </text><text font-family="Rubik,Rubik_MSFontService,sans-serif" font-weight="400" font-size="19" direction="rtl" writing-mode="rl-tb" transform="translate(679.409 497)" x="183.667">טחנו עד לאיחוד הרכיבים</text><text font-family="Rubik,Rubik_MSFontService,sans-serif" font-weight="400" font-size="19" transform="translate(674.909 497)"> <tspan font-size="19" x="183.667" y="23"> </tspan></text><text font-family="Rubik,Rubik_MSFontService,sans-serif" font-weight="400" font-size="19" direction="rtl" writing-mode="rl-tb" transform="translate(845.076 542)" x="18">    </text><text font-family="Rubik,Rubik_MSFontService,sans-serif" font-weight="400" font-size="19" direction="rtl" writing-mode="rl-tb" transform="translate(827.076 542)" x="18">    </text><text font-family="Rubik,Rubik_MSFontService,sans-serif" font-weight="400" font-size="19" direction="rtl" writing-mode="rl-tb" transform="translate(800.242 542)" x="26.8333">טיפ</text><text font-family="Rubik,Rubik_MSFontService,sans-serif" font-weight="400" font-size="19" transform="translate(795.742 542)"> </text><text font-family="Rubik,Rubik_MSFontService,sans-serif" font-weight="400" font-size="19" direction="rtl" writing-mode="rl-tb" transform="translate(827.076 565)" x="36">        </text><text font-family="Rubik,Rubik_MSFontService,sans-serif" font-weight="400" font-size="19" direction="rtl" writing-mode="rl-tb" transform="translate(782.909 565)" x="44.1667">שמרו </text><text font-family="Rubik,Rubik_MSFontService,sans-serif" font-weight="400" font-size="19" direction="rtl" writing-mode="rl-tb" transform="translate(370.409 565)" x="412.5">את האבטיח שרוקנתם והגישו את הקוקטייל שלכם בתוכו</text><text font-family="Rubik,Rubik_MSFontService,sans-serif" font-weight="400" font-size="19" direction="rtl" writing-mode="rl-tb" transform="translate(361.242 565)" x="9.16667">. </text><text font-family="Rubik,Rubik_MSFontService,sans-serif" font-weight="400" font-size="19" direction="rtl" writing-mode="rl-tb" transform="translate(827.076 587)" x="36">        </text><text font-family="Rubik,Rubik_MSFontService,sans-serif" font-weight="400" font-size="19" direction="rtl" writing-mode="rl-tb" transform="translate(781.242 587)" x="45.8333">קשטו </text><text font-family="Rubik,Rubik_MSFontService,sans-serif" font-weight="400" font-size="19" direction="rtl" writing-mode="rl-tb" transform="translate(653.576 587)" x="127.667">במטריות קוקטייל</text><text font-family="Rubik,Rubik_MSFontService,sans-serif" font-weight="400" font-size="19" direction="rtl" writing-mode="rl-tb" transform="translate(644.409 587)" x="9.16667">, </text><text font-family="Rubik,Rubik_MSFontService,sans-serif" font-weight="400" font-size="19" direction="rtl" writing-mode="rl-tb" transform="translate(535.576 587)" x="108.833">קשים צבעוניים</text><text font-family="Rubik,Rubik_MSFontService,sans-serif" font-weight="400" font-size="19" direction="rtl" writing-mode="rl-tb" transform="translate(526.409 587)" x="9.16667">, </text><text font-family="Rubik,Rubik_MSFontService,sans-serif" font-weight="400" font-size="19" direction="rtl" writing-mode="rl-tb" transform="translate(375.076 587)" x="151.333">פלחי לימון ועלי נענע</text><text font-family="Rubik,Rubik_MSFontService,sans-serif" font-weight="400" font-size="19" direction="rtl" writing-mode="rl-tb" transform="translate(370.409 587)" x="4.66667">.</text><text font-family="Rubik,Rubik_MSFontService,sans-serif" font-weight="400" font-size="19" transform="translate(365.909 587)"> </text><text font-family="OS Luizi Round_FFC,OS Luizi Round_FFC_MSFontService,sans-serif" font-weight="400" font-size="43" direction="rtl" writing-mode="rl-tb" transform="translate(376.238 420)" x="330">קוקטייל אבטיח נענע קיצי</text><g clip-path="url(#clip1)"><g clip-path="url(#clip2)"><g clip-path="url(#clip3)"><path d="M837.646 575.667 845.354 575.667C846.009 575.667 846.51 576.168 846.51 576.823 846.51 577.478 846.009 577.979 845.354 577.979L837.646 577.979C836.991 577.979 836.49 577.478 836.49 576.823 836.49 576.168 836.991 575.667 837.646 575.667Z"/><path d="M837.646 579.521 845.354 579.521C846.009 579.521 846.51 580.022 846.51 580.677 846.51 581.332 846.009 581.833 845.354 581.833L837.646 581.833C836.991 581.833 836.49 581.332 836.49 580.677 836.49 580.022 836.991 579.521 837.646 579.521Z"/><path d="M838.995 583.375C839.11 584.685 840.19 585.688 841.5 585.688 842.81 585.688 843.89 584.685 844.005 583.375L838.995 583.375Z"/><path d="M841.5 553.312C841.5 553.312 841.5 553.312 841.5 553.312 841.5 553.312 841.5 553.312 841.5 553.312 836.027 553.351 831.595 557.745 831.479 563.218L831.479 563.565C831.518 564.759 831.749 565.916 832.173 567.033 832.597 568.074 833.175 569.037 833.907 569.885 834.832 570.888 835.834 572.853 836.258 573.701 836.374 573.971 836.644 574.125 836.952 574.125L846.048 574.125C846.356 574.125 846.626 573.971 846.742 573.701 847.166 572.853 848.168 570.888 849.093 569.885 849.825 569.037 850.442 568.074 850.827 567.033 851.251 565.916 851.482 564.759 851.521 563.565L851.521 563.218C851.405 557.745 846.973 553.351 841.5 553.312ZM849.208 563.526C849.17 564.451 848.977 565.376 848.669 566.224 848.36 566.995 847.936 567.727 847.358 568.344 846.472 569.423 845.701 570.579 845.123 571.812L841.5 571.812 837.916 571.812C837.299 570.579 836.528 569.423 835.68 568.344 835.141 567.727 834.678 566.995 834.37 566.224 834.023 565.376 833.869 564.451 833.83 563.526L833.83 563.218C833.907 559.017 837.338 555.625 841.539 555.586L841.539 555.586 841.539 555.586C841.539 555.586 841.539 555.586 841.539 555.586 841.539 555.586 841.539 555.586 841.539 555.586L841.539 555.586 841.539 555.586C845.74 555.625 849.17 558.978 849.247 563.218L849.247 563.526Z"/></g></g></g></g></svg>